<?xml version="1.0" standalone="no"?>
<!DOCTYPE svg PUBLIC "-//W3C//DTD SVG 20010904//EN"
 "http://www.w3.org/TR/2001/REC-SVG-20010904/DTD/svg10.dtd">
<svg version="1.0" xmlns="http://www.w3.org/2000/svg"
 width="221.000000pt" height="256.000000pt" viewBox="0 0 221.000000 256.000000"
 preserveAspectRatio="xMidYMid meet">

<g transform="translate(0.000000,256.000000) scale(0.100000,-0.100000)"
fill="#000000" stroke="none">
<path d="M471 2326 c-54 -19 -112 -75 -140 -135 l-26 -56 -3 -352 -3 -353 96
0 95 0 0 315 c0 350 3 369 62 405 31 19 50 20 283 20 l250 0 0 85 0 85 -290
-1 c-201 0 -300 -4 -324 -13z"/>
<path d="M1230 2255 l0 -85 246 0 c272 0 294 -4 328 -61 16 -27 18 -63 19
-352 l2 -322 88 -3 87 -3 0 350 c0 326 -1 354 -20 404 -23 62 -67 108 -130
136 -42 19 -65 21 -332 21 l-288 0 0 -85z"/>
<path d="M713 2023 c-42 -8 -48 -28 -48 -169 0 -172 -4 -167 148 -174 l112 -5
3 -59 c2 -41 -1 -62 -10 -67 -7 -5 -71 -9 -141 -9 l-128 0 3 -52 3 -53 138 -3
137 -3 0 -64 c0 -36 -3 -65 -7 -65 -177 -2 -224 -7 -240 -23 -16 -16 -18 -42
-18 -276 0 -204 3 -261 14 -274 12 -15 58 -17 477 -17 l463 0 15 22 c14 19 16
62 16 269 0 309 10 289 -151 298 l-114 6 0 60 0 60 138 3 137 3 0 54 0 55
-128 0 c-86 0 -132 4 -140 12 -13 13 -16 85 -6 112 5 13 25 16 115 16 153 0
151 -2 147 180 -2 97 -7 143 -16 152 -10 10 -108 13 -455 14 -243 1 -452 0
-464 -3z m762 -168 l0 -70 -122 -3 -123 -3 0 -294 0 -295 125 0 125 0 0 -190
0 -190 -322 2 -323 3 0 185 0 185 125 5 125 5 0 290 0 290 -114 3 c-64 1 -121
8 -128 14 -17 13 -17 110 -1 126 9 9 90 12 323 10 l310 -3 0 -70z"/>
<path d="M990 1000 l0 -50 170 0 170 0 0 50 0 50 -170 0 -170 0 0 -50z"/>
<path d="M304 1286 c-3 -7 -4 -166 -2 -352 3 -333 3 -340 27 -392 13 -30 42
-68 64 -88 69 -58 106 -64 413 -64 311 0 284 -9 284 101 l0 69 -251 0 c-370 0
-349 -25 -349 418 0 273 -2 311 -16 316 -9 3 -49 6 -90 6 -54 0 -76 -4 -80
-14z"/>
<path d="M1827 1293 c-4 -3 -7 -152 -7 -330 l0 -323 -34 -38 -34 -37 -261 -3
-261 -3 0 -85 0 -85 298 3 297 3 47 28 c26 15 59 43 74 62 50 66 54 99 54 472
l0 343 -83 0 c-46 0 -87 -3 -90 -7z"/>
</g>
</svg>
